<?xml version="1.0" standalone="no"?>
<!DOCTYPE svg PUBLIC "-//W3C//DTD SVG 20010904//EN"
 "http://www.w3.org/TR/2001/REC-SVG-20010904/DTD/svg10.dtd">
<svg version="1.0" xmlns="http://www.w3.org/2000/svg"
 width="512.000000pt" height="512.000000pt" viewBox="0 0 512.000000 512.000000"
 preserveAspectRatio="xMidYMid meet">

<g transform="translate(0.000000,512.000000) scale(0.100000,-0.100000)"
fill="#000000" stroke="none">
<path d="M1790 4705 c-352 -79 -606 -471 -569 -881 21 -244 124 -448 329 -655
124 -125 185 -175 470 -384 268 -197 303 -225 417 -336 120 -116 126 -117 231
-13 102 101 175 160 432 349 118 87 249 185 290 219 350 285 510 564 511 891
1 165 -28 284 -109 440 -67 128 -193 255 -312 314 -47 23 -119 48 -160 57
-211 45 -507 -40 -706 -202 l-54 -44 -62 51 c-80 65 -259 152 -368 180 -110
27 -254 33 -340 14z m252 -159 c159 -30 302 -104 423 -218 76 -71 113 -77 161
-27 165 174 447 285 641 252 197 -34 365 -194 441 -420 24 -71 27 -92 27 -233
0 -148 -2 -159 -32 -243 -44 -126 -114 -235 -221 -348 -118 -124 -193 -187
-462 -384 -225 -166 -334 -251 -412 -323 l-47 -44 -92 81 c-50 45 -202 163
-338 263 -284 209 -376 284 -489 402 -99 103 -170 210 -211 314 -38 100 -51
174 -51 292 0 191 68 359 199 491 139 139 273 181 463 145z"/>
<path d="M3090 2061 c-79 -25 -109 -43 -260 -151 -74 -53 -176 -124 -226 -159
l-91 -63 -93 51 c-180 99 -394 184 -535 212 -119 24 -305 16 -490 -20 -126
-25 -164 -36 -178 -52 -15 -19 -17 -50 -17 -321 l0 -299 25 -24 c32 -33 78
-33 110 0 l25 24 0 250 0 249 28 6 c102 21 272 46 311 46 113 0 274 -42 451
-116 98 -41 176 -84 410 -229 129 -79 248 -131 350 -150 47 -9 301 -36 565
-59 533 -48 527 -47 598 -125 45 -50 48 -71 10 -71 -16 0 -143 -18 -283 -41
-307 -48 -462 -57 -694 -39 l-169 13 -24 -27 c-31 -36 -29 -71 5 -105 30 -31
57 -35 312 -50 l105 -6 -155 -61 c-461 -183 -682 -219 -905 -147 -27 8 -258
114 -513 234 -255 121 -474 219 -488 219 -58 0 -95 -83 -56 -128 15 -18 752
-374 916 -443 134 -57 217 -73 376 -73 119 0 161 4 235 23 256 66 584 192 865
332 195 97 195 97 330 119 74 11 173 24 220 27 76 6 88 9 114 35 25 26 28 34
22 71 -4 23 -14 64 -23 92 l-16 49 28 21 c73 52 269 214 348 286 97 90 101 99
72 195 -32 109 -139 185 -259 185 -36 0 -70 -3 -76 -6 -5 -3 -32 12 -59 35
-86 73 -209 100 -312 68 -35 -10 -42 -9 -62 10 -75 70 -250 102 -366 67 l-58
-17 -49 25 c-116 59 -263 74 -374 38z m254 -158 c16 -9 -20 -37 -254 -202
l-273 -192 -61 30 c-113 54 -122 38 106 197 208 145 233 161 277 175 34 11
181 6 205 -8z m440 -48 c20 -8 36 -19 36 -23 -1 -4 -20 -20 -43 -37 -23 -16
-145 -103 -272 -193 l-230 -163 -100 6 c-55 4 -110 9 -123 12 -26 6 -56 -17
292 227 131 92 248 171 260 176 35 14 141 11 180 -5z m385 -79 c60 -31 58 -37
-50 -122 -56 -43 -159 -120 -229 -171 l-128 -92 -108 10 c-60 5 -115 11 -123
12 -7 1 53 50 135 108 82 58 200 143 262 187 106 76 117 82 163 82 28 0 62 -6
78 -14z m358 -128 c12 -12 23 -27 23 -35 0 -15 -163 -158 -296 -260 l-96 -73
-29 20 c-15 12 -51 31 -79 43 l-50 22 77 56 c43 31 134 102 202 157 69 56 134
103 145 104 32 6 77 -9 103 -34z"/>
<path d="M509 1977 c-24 -13 -57 -43 -74 -66 l-30 -43 -3 -421 c-3 -449 -2
-472 45 -527 52 -62 85 -71 273 -71 188 0 221 9 273 71 47 55 48 78 45 527
l-3 421 -30 43 c-16 23 -50 53 -74 66 -41 21 -56 23 -211 23 -155 0 -170 -2
-211 -23z m359 -149 c17 -17 17 -789 0 -806 -17 -17 -279 -17 -296 0 -17 17
-17 789 0 806 8 8 56 12 148 12 92 0 140 -4 148 -12z"/>
</g>
</svg>
